<mxfile host="app.diagrams.net" modified="2024-05-09T17:48:03.112Z" agent="Mozilla/5.0 (Macintosh; Intel Mac OS X 10_15_7) AppleWebKit/605.1.15 (KHTML, like Gecko) Version/15.6.1 Safari/605.1.15" version="24.2.7" etag="WCzQEC-764d74Aqc6_Nz" type="github">
  <diagram name="Страница — 1" id="1q4lPkUbP5Q4QYwmxQUC">
    <mxGraphModel>
      <root>
        <mxCell id="0" />
        <mxCell id="1" parent="0" />
      </root>
    </mxGraphModel>
  </diagram>
</mxfile>
